<?xml version="1.0" standalone="no"?>
<!DOCTYPE svg PUBLIC "-//W3C//DTD SVG 20010904//EN"
 "http://www.w3.org/TR/2001/REC-SVG-20010904/DTD/svg10.dtd">
<svg version="1.0" xmlns="http://www.w3.org/2000/svg"
 width="510.000000pt" height="510.000000pt" viewBox="0 0 510.000000 510.000000"
 preserveAspectRatio="xMidYMid meet">
<metadata>
Created by potrace 1.14, written by Peter Selinger 2001-2017
</metadata>
<g transform="translate(0.000000,510.000000) scale(0.100000,-0.100000)"
fill="#000000" stroke="none">
<path d="M2417 4244 c-2 -2 -34 -6 -72 -10 -39 -3 -72 -7 -75 -9 -3 -2 -30 -6
-60 -10 -30 -4 -58 -9 -61 -11 -3 -2 -21 -6 -40 -9 -19 -3 -42 -8 -51 -11 -9
-3 -25 -7 -35 -9 -34 -7 -158 -47 -193 -62 -124 -54 -272 -131 -278 -146 -2
-4 -8 -5 -13 -1 -5 3 -12 -2 -15 -10 -3 -9 -10 -16 -15 -16 -25 0 -157 -109
-284 -235 -130 -129 -305 -358 -305 -400 0 -8 -3 -15 -8 -15 -9 0 -101 -192
-106 -222 -1 -7 -4 -17 -7 -23 -8 -13 -38 -106 -43 -131 -2 -10 -9 -38 -15
-62 -7 -24 -14 -60 -17 -80 -2 -20 -6 -44 -9 -52 -25 -87 -25 -496 0 -610 6
-23 12 -57 19 -105 13 -81 81 -274 137 -391 87 -179 198 -332 354 -489 120
-121 157 -151 333 -273 37 -26 247 -136 277 -145 11 -4 37 -13 58 -20 20 -8
37 -12 37 -10 0 3 6 1 13 -5 7 -6 33 -16 57 -22 25 -6 53 -13 63 -15 9 -3 26
-7 38 -10 11 -2 28 -6 37 -9 9 -3 37 -8 62 -12 287 -40 557 -29 795 33 33 8
67 17 75 18 8 2 15 4 15 5 0 1 7 3 16 5 49 9 309 124 329 145 3 3 19 12 35 20
17 8 32 17 35 21 3 3 22 15 43 28 20 12 55 37 76 54 22 18 53 43 70 56 33 25
164 153 221 217 102 112 228 303 291 441 16 35 29 65 29 68 0 2 5 16 12 32 6
15 12 31 13 36 2 4 4 9 5 12 1 3 3 8 4 13 1 4 12 39 24 77 11 39 23 81 26 95
2 14 9 45 14 70 5 25 10 52 11 60 0 8 4 40 7 70 4 30 8 88 8 127 1 40 3 73 6
73 3 0 4 15 3 32 -1 18 -2 33 -3 33 -1 0 -3 43 -5 95 -2 52 -6 109 -8 125 -12
84 -18 122 -23 137 -5 16 -10 37 -19 84 -20 94 -72 226 -151 380 -54 107 -76
143 -158 258 -80 113 -191 230 -336 356 -54 47 -217 154 -300 197 -113 58
-273 118 -371 139 -46 9 -114 22 -134 24 -35 4 -434 8 -438 4z m303 -119 c76
-8 85 -9 125 -18 32 -8 64 -15 104 -23 13 -3 31 -9 40 -13 9 -5 18 -9 21 -8 3
0 23 -5 45 -12 228 -71 485 -230 670 -416 77 -76 185 -208 185 -224 0 -6 4
-11 8 -11 5 0 16 -15 25 -32 17 -34 28 -52 60 -100 9 -14 17 -33 17 -41 0 -9
3 -17 8 -19 23 -10 121 -273 147 -398 34 -161 41 -483 14 -635 -63 -355 -223
-665 -472 -915 -87 -87 -124 -120 -136 -120 -7 0 -16 18 -25 50 -6 24 -63 123
-72 127 -7 2 -10 12 -7 22 5 19 206 221 221 221 4 0 22 12 38 28 36 33 56 91
41 118 -28 50 -35 87 -22 123 20 58 7 309 -20 376 -34 86 -58 126 -122 206
-65 81 -74 88 -170 136 -148 74 -221 88 -378 70 -205 -22 -323 -91 -459 -267
-74 -95 -92 -131 -94 -188 -1 -29 -9 -72 -18 -95 -40 -110 -38 -158 11 -237
l33 -55 -23 -31 c-13 -17 -26 -44 -29 -59 -12 -64 51 -139 111 -133 29 2 37
-3 60 -37 37 -56 96 -107 172 -152 36 -21 68 -38 71 -39 26 -4 60 -18 60 -25
0 -15 -36 -10 -92 11 -63 24 -58 27 -118 -91 -37 -73 -53 -135 -65 -249 -8
-79 -16 -113 -24 -103 -10 11 -34 97 -41 145 -1 4 -6 22 -11 40 -12 39 -18 64
-25 98 -3 14 -8 34 -11 45 -4 11 -8 25 -9 30 -3 19 -75 270 -81 285 -3 8 -7
22 -9 31 -2 9 -15 53 -29 97 -24 76 -35 93 -60 98 -81 16 -252 67 -265 79 -28
25 -12 66 38 93 22 13 61 42 87 66 25 24 67 51 93 61 26 10 50 21 55 25 4 3
-6 24 -23 45 -29 36 -38 64 -22 66 4 0 14 2 22 4 8 2 27 5 42 8 15 3 33 9 38
12 12 7 4 64 -11 79 -13 14 -11 52 4 63 6 5 45 23 84 39 40 16 73 34 73 41 0
7 -26 27 -58 46 -114 67 -128 93 -59 112 4 2 9 4 12 5 3 1 8 3 13 5 33 9 183
81 205 98 9 8 17 17 17 21 0 3 -24 17 -52 30 -29 13 -75 34 -103 46 -27 13
-53 22 -57 22 -5 -1 -8 3 -8 8 0 9 46 55 173 174 26 24 33 37 25 42 -13 8 -19
9 -103 19 -80 9 -145 21 -152 29 -9 8 20 65 94 189 29 48 53 92 53 98 0 13
-16 8 -146 -42 -103 -40 -133 -46 -135 -29 -1 6 -2 13 -3 18 -18 71 -24 131
-25 239 -1 76 -3 83 -20 80 -35 -5 -154 -90 -218 -155 -34 -35 -67 -61 -72
-58 -5 4 -40 46 -77 94 -82 105 -131 156 -138 143 -3 -5 -8 -25 -11 -45 -3
-20 -7 -51 -10 -68 -6 -44 -45 -170 -56 -185 -12 -14 -32 -12 -53 6 -9 7 -16
10 -16 5 0 -5 -4 -4 -8 2 -6 9 -84 42 -115 48 -6 2 -25 6 -40 11 -16 4 -32 4
-37 -1 -6 -6 5 -46 26 -97 19 -48 37 -108 41 -132 5 -42 4 -45 -18 -46 -13 0
-33 -2 -44 -5 -11 -2 -49 -6 -85 -9 -36 -3 -81 -7 -100 -9 -19 -2 -50 -4 -67
-5 -18 0 -33 -4 -33 -8 0 -5 34 -44 74 -88 41 -44 87 -101 101 -127 l26 -47
-28 -25 c-25 -22 -88 -67 -180 -129 -40 -27 -41 -35 -6 -43 102 -22 181 -69
225 -133 16 -23 16 -25 -65 -104 -94 -93 -95 -88 38 -132 98 -31 97 -29 66
-140 -11 -38 -17 -73 -15 -77 3 -4 43 -5 90 -2 66 4 84 3 85 -8 1 -7 1 -34 1
-60 1 -26 6 -49 13 -51 6 -3 32 5 58 18 43 20 48 21 62 5 8 -9 36 -27 62 -40
64 -31 83 -48 83 -77 0 -12 -2 -23 -3 -23 -6 0 -250 -87 -282 -101 -16 -7 -33
-12 -37 -11 -9 2 -39 -53 -37 -65 1 -4 -1 -15 -4 -23 -5 -13 -50 -173 -61
-220 -6 -24 -37 -123 -48 -152 -10 -26 -28 -39 -28 -19 0 4 -10 19 -22 33 -13
13 -35 40 -50 59 -15 18 -40 50 -57 69 -17 19 -31 38 -31 42 0 4 -6 13 -14 21
-30 30 -106 156 -154 257 -112 235 -169 494 -166 745 2 136 15 246 45 373 38
161 151 433 205 493 8 8 14 19 14 23 0 4 32 51 72 104 80 108 212 245 303 316
33 25 66 51 73 57 46 38 209 127 332 182 34 15 154 57 175 61 6 1 19 5 30 9
11 3 32 9 48 12 15 3 39 7 55 10 15 3 34 8 42 10 8 3 49 7 90 11 41 3 76 7 77
7 4 5 267 -2 323 -8z m-890 -1252 c62 -36 102 -152 66 -192 -14 -15 -24 -17
-59 -10 -36 6 -117 5 -207 -4 -56 -5 -55 116 2 178 48 51 137 64 198 28z m330
-45 c0 2 7 -1 15 -8 8 -7 15 -10 15 -7 0 10 54 -16 85 -41 22 -18 29 -31 28
-57 -1 -37 -24 -69 -39 -55 -5 5 -25 11 -44 14 -79 13 -134 19 -175 20 -24 1
-47 5 -51 9 -10 10 -7 74 6 97 14 25 63 38 117 30 24 -4 43 -5 43 -2z m-561
-716 c19 -45 31 -86 27 -89 -3 -4 -6 -1 -6 5 0 6 -6 17 -13 24 -19 19 -54 107
-62 153 -6 38 -6 39 7 15 8 -14 29 -62 47 -108z m1476 -71 c66 -99 25 -235
-89 -297 -43 -24 -133 -22 -182 3 -42 23 -114 94 -114 116 -1 6 -3 28 -6 48
-6 43 3 52 56 55 142 7 236 36 265 82 11 17 26 31 32 32 7 0 24 -17 38 -39z
m205 14 c24 -45 101 -69 255 -80 22 -2 41 -4 43 -4 1 -1 4 0 5 2 2 1 11 -4 21
-12 19 -16 14 -81 -10 -118 -8 -13 -15 -26 -16 -30 -4 -17 -79 -62 -115 -69
-103 -20 -169 4 -238 87 -23 28 -30 64 -26 139 1 25 49 110 62 110 3 0 12 -11
19 -25z m-994 -472 c27 -54 49 -100 50 -103 0 -3 4 -12 7 -20 61 -145 61 -148
-15 -226 -36 -37 -70 -65 -76 -63 -7 2 6 22 29 44 71 70 83 85 86 103 4 24
-29 104 -114 277 -55 113 -66 142 -45 117 16 -18 51 -76 78 -129z m-141 70 c5
-27 10 -55 12 -63 20 -92 36 -340 22 -340 -5 0 -9 6 -10 13 0 6 -2 21 -5 32
-2 11 -6 43 -9 70 -2 28 -7 71 -10 98 -3 26 -7 70 -10 97 -3 28 -8 73 -11 101
-7 65 11 58 21 -8z m-311 -45 c-2 -35 -6 -108 -9 -163 -2 -55 -4 -104 -5 -110
0 -5 -4 -4 -9 4 -11 17 -8 272 4 313 12 46 23 22 19 -44z m-111 -399 c39 -34
46 -53 22 -63 -9 -3 -15 0 -15 10 0 9 -16 31 -35 50 -44 43 -21 45 28 3z"/>
</g>
</svg>
